<?xml version="1.0" standalone="no"?>
<!DOCTYPE svg PUBLIC "-//W3C//DTD SVG 20010904//EN"
 "http://www.w3.org/TR/2001/REC-SVG-20010904/DTD/svg10.dtd">
<svg version="1.0" xmlns="http://www.w3.org/2000/svg"
 width="894.000000pt" height="894.000000pt" viewBox="0 0 894.000000 894.000000"
 preserveAspectRatio="xMidYMid meet">
<metadata>
Created by potrace 1.14, written by Peter Selinger 2001-2017
</metadata>
<g transform="translate(0.000000,894.000000) scale(0.100000,-0.100000)"
fill="#000000" stroke="none">
<path d="M3395 8844 c-458 -36 -813 -133 -1205 -328 -246 -122 -462 -269 -679
-460 -637 -560 -1128 -1464 -1330 -2446 -74 -360 -101 -619 -108 -1025 -7
-425 12 -658 77 -930 204 -856 804 -1348 1795 -1472 202 -25 826 -25 1040 0
274 33 579 98 843 181 63 20 115 36 116 36 2 0 -86 -447 -195 -992 -156 -779
-199 -1009 -199 -1070 l0 -78 510 0 c281 0 510 3 510 6 0 3 104 516 230 1141
127 624 230 1137 230 1139 0 2 222 4 493 4 514 0 695 8 912 39 551 80 1063
294 1450 605 117 95 287 265 388 391 233 289 404 639 481 986 45 202 59 365
53 629 -7 326 -41 497 -142 698 -142 283 -362 490 -688 647 -197 95 -382 152
-637 195 -264 44 -285 45 -1425 45 l-1089 0 -334 -1670 c-184 -918 -339 -1673
-345 -1677 -23 -15 -314 -126 -409 -157 -442 -141 -975 -216 -1293 -182 -817
86 -1224 536 -1280 1416 -8 113 7 348 35 572 96 752 375 1465 770 1963 108
136 309 336 431 427 539 404 1136 532 1814 388 221 -46 479 -144 687 -260 115
-64 119 -65 192 -65 70 0 76 2 81 23 3 12 28 134 55 271 l50 250 0 243 0 244
-47 20 c-252 110 -594 194 -958 235 -134 15 -756 28 -880 18z m3285 -2944
c604 -46 950 -275 1045 -692 44 -193 -7 -508 -125 -778 -239 -545 -721 -876
-1420 -975 -85 -13 -226 -18 -542 -22 -236 -3 -428 -2 -428 2 0 8 478 2416
487 2453 l5 22 422 0 c231 0 482 -5 556 -10z"/>
</g>
</svg>
